<mxfile host="app.diagrams.net" modified="2024-02-09T19:46:48.287Z" agent="Mozilla/5.0 (Windows NT 10.0; Win64; x64) AppleWebKit/537.36 (KHTML, like Gecko) Chrome/120.0.0.0 Safari/537.36" etag="bsojiFayQWr0pxy-OHUh" version="23.1.1" type="github">
  <diagram name="第 1 页" id="5Fmc6TZa9lJt2DpzqyrR">
    <mxGraphModel dx="2074" dy="3478" grid="1" gridSize="10" guides="1" tooltips="1" connect="1" arrows="1" fold="1" page="1" pageScale="1" pageWidth="827" pageHeight="1169" math="0" shadow="0">
      <root>
        <mxCell id="0" />
        <mxCell id="1" parent="0" />
        <mxCell id="tl0OhDEsZjKwrp6nwjqD-42" value="" style="edgeStyle=orthogonalEdgeStyle;rounded=0;orthogonalLoop=1;jettySize=auto;html=1;" edge="1" parent="1" source="tl0OhDEsZjKwrp6nwjqD-2" target="tl0OhDEsZjKwrp6nwjqD-6">
          <mxGeometry relative="1" as="geometry" />
        </mxCell>
        <mxCell id="tl0OhDEsZjKwrp6nwjqD-2" value="show the tutioral screen with texts and several pictures" style="rounded=1;whiteSpace=wrap;html=1;shadow=0;comic=0;labelBackgroundColor=none;strokeWidth=1;fontFamily=Verdana;fontSize=12;align=center;arcSize=50;" vertex="1" parent="1">
          <mxGeometry x="271" y="-1850" width="142.5" height="50" as="geometry" />
        </mxCell>
        <mxCell id="tl0OhDEsZjKwrp6nwjqD-3" value="" style="edgeStyle=orthogonalEdgeStyle;rounded=0;orthogonalLoop=1;jettySize=auto;html=1;entryX=0.5;entryY=0;entryDx=0;entryDy=0;" edge="1" parent="1" source="tl0OhDEsZjKwrp6nwjqD-4" target="tl0OhDEsZjKwrp6nwjqD-25">
          <mxGeometry relative="1" as="geometry">
            <mxPoint x="342.25" y="-1930" as="targetPoint" />
          </mxGeometry>
        </mxCell>
        <mxCell id="tl0OhDEsZjKwrp6nwjqD-4" value="" style="ellipse;whiteSpace=wrap;html=1;rounded=0;shadow=0;comic=0;labelBackgroundColor=none;strokeWidth=1;fillColor=#000000;fontFamily=Verdana;fontSize=12;align=center;" vertex="1" parent="1">
          <mxGeometry x="322.25" y="-2000" width="40" height="40" as="geometry" />
        </mxCell>
        <mxCell id="tl0OhDEsZjKwrp6nwjqD-26" value="" style="edgeStyle=orthogonalEdgeStyle;rounded=0;orthogonalLoop=1;jettySize=auto;html=1;" edge="1" parent="1" source="tl0OhDEsZjKwrp6nwjqD-6" target="tl0OhDEsZjKwrp6nwjqD-23">
          <mxGeometry relative="1" as="geometry" />
        </mxCell>
        <mxCell id="tl0OhDEsZjKwrp6nwjqD-6" value="go back to main menu" style="rounded=1;whiteSpace=wrap;html=1;shadow=0;comic=0;labelBackgroundColor=none;strokeWidth=1;fontFamily=Verdana;fontSize=12;align=center;arcSize=50;" vertex="1" parent="1">
          <mxGeometry x="284.75" y="-1753" width="117.75" height="43" as="geometry" />
        </mxCell>
        <mxCell id="tl0OhDEsZjKwrp6nwjqD-23" value="" style="shape=mxgraph.bpmn.shape;html=1;verticalLabelPosition=bottom;labelBackgroundColor=#ffffff;verticalAlign=top;perimeter=ellipsePerimeter;outline=end;symbol=terminate;rounded=0;shadow=0;comic=0;strokeWidth=1;fontFamily=Verdana;fontSize=12;align=center;" vertex="1" parent="1">
          <mxGeometry x="323.63" y="-1680" width="40" height="40" as="geometry" />
        </mxCell>
        <mxCell id="tl0OhDEsZjKwrp6nwjqD-24" value="" style="edgeStyle=orthogonalEdgeStyle;rounded=0;orthogonalLoop=1;jettySize=auto;html=1;" edge="1" parent="1" source="tl0OhDEsZjKwrp6nwjqD-25" target="tl0OhDEsZjKwrp6nwjqD-2">
          <mxGeometry relative="1" as="geometry">
            <Array as="points">
              <mxPoint x="341" y="-1870" />
              <mxPoint x="341" y="-1870" />
            </Array>
          </mxGeometry>
        </mxCell>
        <mxCell id="tl0OhDEsZjKwrp6nwjqD-25" value="show existing players&#39; profile" style="rounded=1;whiteSpace=wrap;html=1;shadow=0;comic=0;labelBackgroundColor=none;strokeWidth=1;fontFamily=Verdana;fontSize=12;align=center;arcSize=50;" vertex="1" parent="1">
          <mxGeometry x="284.75" y="-1930" width="115" height="40" as="geometry" />
        </mxCell>
      </root>
    </mxGraphModel>
  </diagram>
</mxfile>
